<?xml version="1.0" standalone="no"?><!DOCTYPE svg PUBLIC "-//W3C//DTD SVG 1.1//EN" "http://www.w3.org/Graphics/SVG/1.1/DTD/svg11.dtd"><svg class="icon" height="512" viewBox="0 0 1024 1024" version="1.1" xmlns="http://www.w3.org/2000/svg"><path d="M875.979 523.045c-5.353-100-58.707-192.261-142.917-247.109l50.076-86.745-14.316-8.285c-59.402-34.918-130.844-55.542-207.105-55.542-0.002 0-0.003 0-0.005 0-70.53 0.084-136.905 17.794-194.982 48.96l-47.489-87.818-14.35 8.318c-158.445 91.666-256.853 262.106-256.853 444.79v16.57h298.974c5.697 69.221 43.23 128.622 97.759 164.094l-54.693 83.497 14.316 8.285c45.185 26.623 99.543 42.362 157.575 42.387 49.22 0 98.201-11.964 142.444-34.565l50.076 86.727 14.35-8.318c127.773-73.886 207.126-211.334 207.126-358.676v-16.57h-99.983zM842.905 523.045h-252.495l126.116-218.459c74.052 48.898 121.11 130.24 126.38 218.459zM385.702 201.619c51.071-27.166 111.678-43.121 176.007-43.121s124.934 15.953 178.075 44.117l-178.075 303.857-176.007-304.857zM307.293 132.059l225.718 390.988h-451.535c5.551-159.090 90.605-306.364 225.815-390.988zM380.202 556.185h152.81l-76.321 132.196c-44.225-31.598-73.603-81.531-76.978-138.459zM687.874 791.249c-78.375 39.42-173.937 39.403-252.33 0.017l126.18-218.51 126.146 218.493zM766.417 861.009l-175.99-304.823h352.049c-5.468 123.713-71.483 238.046-176.058 304.823z" /></svg>