<svg height="1065pt" viewBox="-33 -50 1065.0001 1065" width="1065pt" xmlns="http://www.w3.org/2000/svg"><path d="m164.386719 279.742188c.027343 3.871093.746093 7.707031 2.117187 11.332031l.097656.140625c3.484376 9.382812 10.980469 16.699218 20.429688 19.980468.484375.160157.96875.308594 1.472656.449219 2.964844.886719 6.066406 1.355469 9.164063 1.375 18.382812 0 33.28125-14.898437 33.28125-33.277343 0-18.386719-14.898438-33.285157-33.28125-33.285157-18.382813 0-33.28125 14.898438-33.28125 33.285157zm0 0"/><path d="m297.511719 313.019531c18.386719 0 33.285156-14.898437 33.285156-33.277343-.035156-3.152344-.539063-6.269532-1.484375-9.273438-.144531-.507812-.300781-1.011719-.460938-1.515625-3.34375-9.558594-10.847656-17.078125-20.402343-20.429687-.105469-.046876-.210938-.097657-.292969-.167969-12.546875-4.414063-26.523438-.957031-35.53125 8.820312-9.019531 9.769531-11.355469 23.972657-5.945312 36.113281 5.417968 12.152344 17.539062 19.90625 30.832031 19.730469zm0 0"/><path d="m31.261719 945.363281c0 9.195313 7.453125 16.640625 16.640625 16.640625h898.59375c9.195312 0 16.644531-7.445312 16.644531-16.640625v-16.636719h-931.878906zm0 0"/><path d="m430.640625 279.742188c0 18.378906-14.902344 33.277343-33.285156 33.277343-18.378907 0-33.277344-14.898437-33.277344-33.277343 0-18.386719 14.898437-33.285157 33.277344-33.285157 18.382812 0 33.285156 14.898438 33.285156 33.285157zm0 0"/><path d="m530.480469 279.742188c0 18.378906-14.898438 33.277343-33.28125 33.277343-18.378907 0-33.277344-14.898437-33.277344-33.277343 0-18.386719 14.898437-33.285157 33.277344-33.285157 18.382812 0 33.28125 14.898438 33.28125 33.285157zm0 0"/><path d="m630.324219 279.742188c0 18.378906-14.898438 33.277343-33.28125 33.277343-18.378907 0-33.28125-14.898437-33.28125-33.277343 0-18.386719 14.902343-33.285157 33.28125-33.285157 18.382812 0 33.28125 14.898438 33.28125 33.285157zm0 0"/><path d="m696.886719 313.019531c13.296875.175781 25.417969-7.578125 30.835937-19.730469 5.414063-12.140624 3.074219-26.34375-5.949218-36.113281-9.003907-9.777343-22.980469-13.234375-35.523438-8.820312-.085938.070312-.191406.121093-.292969.167969-9.554687 3.351562-17.0625 10.871093-20.40625 20.429687-.164062.503906-.316406 1.007813-.460937 1.515625-.941406 3.003906-1.449219 6.121094-1.484375 9.273438 0 8.824218 3.507812 17.285156 9.75 23.527343 6.238281 6.246094 14.707031 9.75 23.53125 9.75zm0 0"/><path d="m497.199219 213.175781c19.191406.0625 37.40625 8.460938 49.921875 23 10.417968-11.976562 24.789062-19.804687 40.507812-22.050781l-83.636718-32.945312c-4.367188-1.714844-9.21875-1.714844-13.582032 0l-83.636718 32.945312c15.714843 2.246094 30.089843 10.074219 40.503906 22.050781 12.515625-14.539062 30.734375-22.9375 49.921875-23zm0 0"/><path d="m796.730469 313.019531c3.109375-.035156 6.199219-.523437 9.167969-1.449219.503906-.125.988281-.277343 1.476562-.445312 9.441406-3.273438 16.9375-10.597656 20.425781-19.96875l.097657-.15625c1.363281-3.597656 2.082031-7.410156 2.117187-11.257812 0-18.386719-14.898437-33.285157-33.285156-33.285157-18.378907 0-33.277344 14.898438-33.277344 33.285157 0 18.378906 14.898437 33.277343 33.277344 33.277343zm0 0"/><path d="m963.140625 396.226562c.074219-20.980468-12.96875-39.773437-32.652344-47.03125l-79.394531-31.285156c-.410156.589844-.929688 1.082032-1.363281 1.667969-1.355469 1.835937-2.808594 3.601563-4.355469 5.296875-1.210938 1.292969-2.460938 2.527344-3.769531 3.722656-1.652344 1.515625-3.410157 2.925782-5.199219 4.269532-1.671875 1.273437-3.421875 2.460937-5.203125 3.558593-2.039063 1.246094-4.140625 2.386719-6.296875 3.417969-1.238281.582031-2.445312 1.1875-3.710938 1.664062-3.210937 1.28125-6.527343 2.316407-9.902343 3.082032-.929688.195312-1.882813.34375-2.8125.53125-3.875.746094-7.808594 1.140625-11.75 1.179687-4.691407-.015625-9.363281-.527343-13.941407-1.53125-1.519531-.308593-2.894531-.933593-4.359374-1.347656-2.917969-.769531-5.78125-1.738281-8.574219-2.894531-1.664063-.730469-3.113281-1.664063-4.6875-2.546875-2.386719-1.230469-4.695313-2.613281-6.90625-4.121094-1.546875-1.101563-2.914063-2.367187-4.34375-3.582031-1.980469-1.625-3.863281-3.363282-5.644531-5.207032-.449219-.488281-1.03125-.855468-1.464844-1.347656-.429688.492188-1.011719.859375-1.460938 1.347656-1.78125 1.84375-3.664062 3.582032-5.644531 5.207032-1.429687 1.214844-2.796875 2.480468-4.34375 3.582031-2.210937 1.507813-4.523437 2.890625-6.90625 4.121094-1.574219.851562-3.039063 1.816406-4.6875 2.546875-2.792969 1.15625-5.65625 2.125-8.574219 2.894531-1.464844.414063-2.839844 1.039063-4.359375 1.347656-23.621093 5.207031-48.179687-3.050781-63.867187-21.46875-12.472656 14.597657-30.71875 23-49.921875 23-19.207031 0-37.4375-8.402343-49.921875-23-12.476563 14.597657-30.71875 23-49.921875 23-19.199219 0-37.4375-8.402343-49.921875-23-12.476563 14.597657-30.710938 23-49.921875 23-19.199219 0-37.445313-8.402343-49.921875-23-15.683594 18.417969-40.246094 26.675781-63.863282 21.46875-1.519531-.308593-2.894531-.933593-4.359374-1.347656-2.917969-.769531-5.78125-1.738281-8.574219-2.894531-1.664063-.730469-3.113281-1.664063-4.6875-2.546875-2.386719-1.230469-4.695313-2.613281-6.90625-4.121094-1.546875-1.101563-2.914063-2.367187-4.34375-3.582031-1.980469-1.625-3.863281-3.363282-5.644531-5.207032-.449219-.488281-1.03125-.855468-1.464844-1.347656-.429688.492188-1.011719.859375-1.460938 1.347656-1.78125 1.84375-3.664062 3.582032-5.644531 5.207032-1.429687 1.214844-2.796875 2.480468-4.34375 3.582031-2.210937 1.507813-4.523437 2.890625-6.90625 4.121094-1.664063.851562-3.039063 1.816406-4.6875 2.546875-2.792969 1.15625-5.65625 2.125-8.574219 2.894531-1.464844.414063-2.839844 1.039063-4.359375 1.347656-4.574219 1.003907-9.25 1.515625-13.945312 1.53125-3.941407-.039062-7.871094-.433593-11.746094-1.179687-.925781-.1875-1.882813-.335938-2.8125-.53125-3.40625-.761719-6.742187-1.800782-9.988281-3.082032-1.261719-.492187-2.472656-1.097656-3.707032-1.664062-2.152343-1.03125-4.261718-2.171875-6.292968-3.417969-1.789063-1.097656-3.53125-2.285156-5.199219-3.558593-1.800781-1.34375-3.554687-2.753907-5.214844-4.269532-1.300781-1.195312-2.546875-2.429687-3.765625-3.722656-1.542968-1.695312-2.996094-3.460938-4.347656-5.296875-.4375-.558594-.957031-1.066406-1.367188-1.667969l-79.402343 31.285156c-19.636719 7.320313-32.65625 26.074219-32.65625 47.03125 0 20.953126 13.019531 39.703126 32.65625 47.023438l133.84375 52.703125v366.207031h-149.765625c-9.1875 0-16.640625 7.453125-16.640625 16.636719v16.648437h931.878906v-16.648437c0-9.183594-7.449219-16.636719-16.644531-16.636719h-149.765625v-366.207031l133.777343-52.703125c19.671876-7.261719 32.710938-26.050781 32.632813-47.023438zm-798.753906 49.917969c-9.183594 0-16.640625-7.449219-16.640625-16.636719 0-9.195312 7.457031-16.644531 16.640625-16.644531 9.195312 0 16.644531 7.449219 16.644531 16.644531 0 9.1875-7.449219 16.636719-16.644531 16.636719zm582.421875 0c9.195312 0 16.644531 7.449219 16.644531 16.640625s-7.449219 16.636719-16.644531 16.636719c-9.1875 0-16.640625-7.445313-16.640625-16.636719s7.453125-16.640625 16.640625-16.640625zm-416.011719-66.566406h332.808594c9.195312 0 16.644531 7.457031 16.644531 16.648437 0 9.1875-7.449219 16.636719-16.644531 16.636719h-332.808594c-9.191406 0-16.644531-7.449219-16.644531-16.636719 0-9.191406 7.453125-16.648437 16.644531-16.648437zm349.453125 116.488281c0 9.191406-7.449219 16.644532-16.644531 16.644532-9.183594 0-16.640625-7.453126-16.640625-16.644532 0-9.183594 7.457031-16.644531 16.640625-16.644531 9.195312 0 16.644531 7.460937 16.644531 16.644531zm-99.84375-16.644531h-166.410156c-9.183594 0-16.640625-7.445313-16.640625-16.636719s7.457031-16.640625 16.640625-16.640625h166.410156c9.183594 0 16.636719 7.449219 16.636719 16.640625s-7.453125 16.636719-16.636719 16.636719zm16.636719 49.929687c0 9.191407-7.453125 16.640626-16.636719 16.640626-9.191406 0-16.644531-7.449219-16.644531-16.640626 0-9.191406 7.453125-16.640624 16.644531-16.640624 9.183594 0 16.636719 7.449218 16.636719 16.640624zm-83.199219 33.277344c0 9.199219-7.449219 16.644532-16.644531 16.644532-9.1875 0-16.640625-7.445313-16.640625-16.644532 0-9.1875 7.453125-16.636718 16.640625-16.636718 9.195312 0 16.644531 7.449218 16.644531 16.636718zm-83.203125-33.277344c0 9.191407-7.449219 16.640626-16.644531 16.640626-9.183594 0-16.640625-7.449219-16.640625-16.640626 0-9.191406 7.457031-16.640624 16.640625-16.640624 9.195312 0 16.644531 7.449218 16.644531 16.640624zm-99.84375-49.929687c9.183594 0 16.636719 7.460937 16.636719 16.644531 0 9.191406-7.453125 16.644532-16.636719 16.644532-9.191406 0-16.644531-7.453126-16.644531-16.644532 0-9.183594 7.453125-16.644531 16.644531-16.644531zm-83.207031-33.277344c9.195312 0 16.644531 7.449219 16.644531 16.640625s-7.449219 16.636719-16.644531 16.636719c-9.1875 0-16.640625-7.445313-16.640625-16.636719s7.453125-16.640625 16.640625-16.640625zm515.863281 416.015625h-532.503906v-353.113281l259.460937 102.226563c4.363282 1.71875 9.214844 1.71875 13.582032 0l259.460937-102.226563zm66.5625-416.015625c-9.191406 0-16.644531-7.449219-16.644531-16.636719 0-9.195312 7.453125-16.644531 16.644531-16.644531 9.183594 0 16.636719 7.449219 16.636719 16.644531 0 9.1875-7.453125 16.636719-16.636719 16.636719zm0 0"/><path d="m979.777344 96.691406h-43.03125l21.519531-21.511718c4.324219-4.179688 6.050781-10.367188 4.539063-16.183594-1.523438-5.824219-6.070313-10.363282-11.890626-11.882813-5.8125-1.523437-12.011718.207031-16.179687 4.535157l-21.519531 21.511718v-59.667968c0-9.191407-7.445313-16.644532-16.640625-16.644532-9.1875 0-16.640625 7.453125-16.640625 16.644532v59.667968l-21.511719-21.511718c-6.527344-6.304688-16.914063-6.214844-23.335937.195312-6.40625 6.421875-6.5 16.804688-.195313 23.335938l21.511719 21.511718h-43.03125c-9.183594 0-16.640625 7.453125-16.640625 16.640625 0 9.191407 7.457031 16.636719 16.640625 16.636719h43.03125l-21.511719 21.523438c-4.324219 4.175781-6.058594 10.367187-4.539063 16.183593 1.523438 5.816407 6.0625 10.363281 11.882813 11.886719 5.824219 1.519531 12.007813-.214844 16.1875-4.539062l21.511719-21.519532v59.671875c0 9.191407 7.453125 16.636719 16.640625 16.636719 9.195312 0 16.640625-7.445312 16.640625-16.636719v-59.671875l21.519531 21.519532c6.53125 6.304687 16.90625 6.214843 23.320313-.207032 6.429687-6.414062 6.515624-16.792968.210937-23.324218l-21.519531-21.523438h43.03125c9.195312 0 16.640625-7.445312 16.640625-16.636719 0-9.1875-7.445313-16.640625-16.640625-16.640625zm0 0"/><path d="m36.136719 151.492188c-4.328125 4.175781-6.050781 10.367187-4.539063 16.183593 1.523438 5.816407 6.066406 10.363281 11.894532 11.886719 5.804687 1.519531 12.003906-.214844 16.175781-4.539062l21.519531-21.519532v59.671875c0 9.191407 7.449219 16.636719 16.636719 16.636719 9.195312 0 16.644531-7.445312 16.644531-16.636719v-59.671875l21.511719 21.519532c6.523437 6.304687 16.910156 6.214843 23.335937-.207032 6.40625-6.414062 6.5-16.792968.195313-23.324218l-21.515625-21.523438h43.035156c9.183594 0 16.636719-7.445312 16.636719-16.636719 0-9.1875-7.453125-16.640625-16.636719-16.640625h-43.035156l21.515625-21.511718c4.324219-4.179688 6.0625-10.367188 4.539062-16.183594-1.523437-5.824219-6.066406-10.363282-11.882812-11.882813-5.824219-1.523437-12.003907.207031-16.1875 4.535157l-21.511719 21.511718v-59.667968c0-9.191407-7.449219-16.644532-16.644531-16.644532-9.1875 0-16.636719 7.453125-16.636719 16.644532v59.667968l-21.519531-21.511718c-6.53125-6.304688-16.910157-6.214844-23.320313.195312-6.429687 6.421875-6.515625 16.804688-.210937 23.335938l21.515625 21.511718h-43.027344c-9.199219 0-16.644531 7.453125-16.644531 16.640625 0 9.191407 7.445312 16.636719 16.644531 16.636719h43.027344zm0 0"/></svg>