<svg height="524pt" viewBox="-40 -40 524 524" width="524pt" xmlns="http://www.w3.org/2000/svg">
<path d="m464 32c0-17.671875-14.328125-32-32-32-9.617188 0-18.136719 4.328125-24 11.039062-5.863281-6.710937-14.382812-11.039062-24-11.039062-17.671875 0-32 14.328125-32 32s14.328125 32 32 32l-41.65625 41.65625-7.183594-7.183594c-6.753906-6.753906-15.726562-10.472656-25.28125-10.472656-11.183594 0-21.878906 5.34375-28.597656 14.304688l-9.488281 12.640624c-1.089844 15.152344-10.128907 27.453126-17.488281 35 4.582031 18.949219-.832032 38.703126-14.703126 52.558594-5.113281 5.121094-11.089843 9.121094-17.761718 11.886719-8.289063 3.441406-13.839844 12.167969-13.839844 21.722656v.597657c12.382812 5.03125 22.824219 13.832031 29.9375 24.976562 6.230469-17.757812 17.078125-33.351562 31.207031-45.238281l-10.800781-10.800781 11.3125-11.3125 12.71875 12.71875c5.402344-3.261719 11.097656-6.046876 17.074219-8.300782l-9.105469-9.105468 11.3125-11.3125 15.457031 15.457031c6.132813-1.128907 12.429688-1.800781 18.886719-1.800781 1.664062 0 3.289062.167968 4.9375.246093l-34.59375-34.589843 11.3125-11.3125 40.273438 40.273437 4.300781-3.441406c8.746093-6.992188 13.769531-17.441407 13.769531-28.648438 0-9.664062-3.921875-19.121093-10.753906-25.953125l-6.902344-6.902344 41.65625-41.664062c0 17.671875 14.328125 32 32 32s32-14.328125 32-32c0-9.617188-4.328125-18.136719-11.039062-24 6.710937-5.863281 11.039062-14.382812 11.039062-24zm0 0"/><path d="m64 448.902344v-16.902344h-12.335938c3.070313 6.464844 7.257813 12.167969 12.335938 16.902344zm0 0"/><path d="m16.097656 141.601562 3.878906 3.519532-1.679687 4.96875c-4.945313 14.597656-1.335937 30.351562 9.421875 41.101562 3.625 3.632813 7.855469 6.464844 12.585938 8.425782 14.390624 5.976562 23.695312 20.292968 23.695312 36.496093v51.886719h24v-95.015625l-7.046875-28.191406-53.601563-38.289063 9.296876-13.015625 38.328124 27.375-10.730468-42.925781 15.515625-3.875 24.238281 97.9375v96h16v-200h16v165.808594c4.585938-5.207032 9.992188-9.664063 16.03125-13.167969l.207031-50.578125 24-96 15.515625 3.875-10.730468 42.925781 38.328124-27.375 9.296876 13.015625-53.601563 38.289063-7.046875 28.191406v41.121094c5.128906-1.328125 10.464844-2.105469 16-2.105469 2.800781 0 5.542969.238281 8.246094.59375 1.25-14.722656 10.113281-27.449219 23.449218-32.976562 4.71875-1.960938 8.953126-4.792969 12.570313-8.417969 10.765625-10.757813 14.375-26.503907 9.429687-41.109375l-1.679687-4.96875 3.878906-3.519532c6.027344-5.441406 16.105469-16.53125 16.105469-29.601562 0-18.960938-16.375-33.929688-31.785156-38.390625l-6.40625-1.855469.671875-6.632812c1.222656-12.136719-2.886719-23.914063-11.289063-32.3125-9.65625-9.65625-23.480468-13.640625-36.953125-10.664063l-5.476562 1.207031-3-4.734374c-7.402344-11.65625-20.027344-18.617188-33.761719-18.617188s-26.359375 6.960938-33.769531 18.617188l-3 4.734374-5.46875-1.207031c-13.503907-2.976562-27.289063 1.007813-36.953125 10.664063-8.402344 8.398437-12.511719 20.175781-11.289063 32.3125l.671875 6.632812-6.40625 1.855469c-15.410156 4.460937-31.785156 19.429687-31.785156 38.390625 0 13.070312 10.078125 24.160156 16.097656 29.601562zm0 0"/><path d="m144 432h16v32h-16zm0 0"/><path d="m112 432h16v32h-16zm0 0"/><path d="m80 459.289062c5.039062 2.167969 10.390625 3.613282 16 4.230469v-31.511719h-16zm0 0"/><path d="m335.953125 231.382812 40.023437 16 25.351563-10.136718c-16.121094-17.902344-39.390625-29.246094-65.328125-29.246094s-49.207031 11.34375-65.328125 29.257812l25.296875 10.125zm0 0"/><path d="m248.40625 288h175.195312c-1.234374-13.632812-5.632812-26.328125-12.394531-37.464844l-35.222656 14.082032-40.023437-16-39.992188 16-35.167969-14.082032c-6.761719 11.136719-11.160156 23.839844-12.394531 37.464844zm0 0"/><path d="m136.71875 288h94.5625c-3.824219-22.664062-23.539062-40-47.28125-40s-43.449219 17.335938-47.28125 40zm0 0"/><path d="m45.761719 416h372.476562l26.664063-80h-425.804688zm0 0"/><path d="m336 432h16v32h-16zm0 0"/><path d="m368 463.519531c5.609375-.617187 10.960938-2.054687 16-4.230469v-27.28125h-16zm0 0"/><path d="m176 432h16v32h-16zm0 0"/><path d="m456 304h-448c-4.414062 0-8 3.585938-8 8s3.585938 8 8 8h448c4.414062 0 8-3.585938 8-8s-3.585938-8-8-8zm0 0"/><path d="m400 448.902344c5.078125-4.734375 9.265625-10.4375 12.335938-16.902344h-12.335938zm0 0"/><path d="m208 432h16v32h-16zm0 0"/><path d="m240 432h16v32h-16zm0 0"/><path d="m304 432h16v32h-16zm0 0"/><path d="m272 432h16v32h-16zm0 0"/></svg>